<?xml version="1.0" encoding="utf-8"?>
<!-- Generator: Adobe Illustrator 23.1.1, SVG Export Plug-In . SVG Version: 6.00 Build 0)  -->
<svg version="1.1" id="Layer_1" xmlns="http://www.w3.org/2000/svg" xmlns:xlink="http://www.w3.org/1999/xlink" x="0px" y="0px"
	 viewBox="0 0 500 500" style="enable-background:new 0 0 283.32 504;" xml:space="preserve">
<style type="text/css">
	.st0{fill:#F2CE16;}
	.st1{fill:#006837;}
</style>
<path class="st0" d="M93.79,458.6c-7.55,4.12-15.16,8.2-22.76,12.07l-1.14,0.25c-11.18-8.3-19.78-19.33-25.79-33.04
	c4.22-2.09,8.45-4.22,12.67-6.31C68.95,440.91,81.27,449.9,93.79,458.6z M204.28,278.72c4.97-0.62,9.96-1.03,15-1.06
	c4.23-0.03,8.36,0.38,12.47,0.94c-5.47-3.17-10.95-6.4-16.42-9.72C211.68,272.21,207.99,275.48,204.28,278.72z M37.15,416.11
	c1.29,6.06,2.93,11.68,4.92,16.99c3.38-1.64,6.76-3.28,10.14-4.97C47.13,424.16,42.11,420.14,37.15,416.11z M211.11,266.25
	c-11.18-6.96-22.21-14.26-33.09-21.86c-10.19,8.6-20.57,16.94-31.15,24.99c7.29,5.39,14.63,10.64,22.07,15.76
	c8.74-1.61,17.46-3.55,26.23-5.06C200.52,275.55,205.84,270.95,211.11,266.25z M155.04,319.99c-0.13-0.48-0.3-0.99-0.48-1.51
	c-2.46,1.8-4.92,3.59-7.4,5.36c3.93,2.74,7.89,5.44,11.86,8.11C157.46,328.01,156.15,323.97,155.04,319.99z M131.11,319.99
	c-1.07,3.81-2.31,7.67-3.79,11.46c3.73-2.51,7.44-5.04,11.14-7.6c-2.33-1.67-4.65-3.37-6.97-5.07
	C131.35,319.19,131.22,319.6,131.11,319.99z M223.83,429.03c-13.17-6.81-26.19-14.01-39.06-21.47
	c-12.17,8.7-24.55,17.09-37.12,25.14c12.87,8,25.89,15.75,39.11,23.11C199.28,447.17,211.65,438.28,223.83,429.03z M98.86,455.82
	c13.22-7.4,26.24-15.11,39.11-23.11c-12.52-8.1-24.89-16.5-37.12-25.14c-12.87,7.45-25.89,14.66-39.06,21.47
	C73.97,438.28,86.34,447.17,98.86,455.82z M147.9,487.12c1.64,0.89,3.18,1.89,4.82,2.83c21.32-1.49,39.65-7.25,54.41-17.24
	c-6.76-3.53-13.42-7.11-20.12-10.73C174.14,470.62,161.12,479.07,147.9,487.12z M239.33,431.02c1.24-3.23,2.34-6.66,3.28-10.19
	c-3.03,2.43-6.11,4.87-9.19,7.3C235.45,429.08,237.34,430.03,239.33,431.02z M191.83,458.65c6.66,3.63,13.32,7.16,20.02,10.63
	c10.83-8.5,19.43-19.63,25.49-33.39c-2.83-1.39-5.66-2.83-8.45-4.22C216.72,440.91,204.4,449.95,191.83,458.65z M142.83,435.84
	c-12.87,8.1-25.89,15.85-39.11,23.3c12.87,8.65,25.89,16.99,39.11,24.99c13.22-8.05,26.19-16.35,39.11-24.99
	C168.72,451.69,155.7,443.89,142.83,435.84z M189.34,404.24c12.87,7.4,25.84,14.51,39.06,21.27c5.42-4.22,10.83-8.5,16.2-12.87
	c1.44-7.25,2.43-15.01,2.83-23.35c-7.75-3.83-15.4-7.85-23.06-11.88C212.9,386.65,201.22,395.59,189.34,404.24z M61.69,371.29
	c2.13-1.16,4.24-2.33,6.36-3.51c-5.36-0.61-10.59-1.91-15.41-3.98C55.64,366.31,58.65,368.82,61.69,371.29z M74.56,266.3
	c5.2,4.64,10.43,9.19,15.72,13.66c8.9,1.5,17.73,3.47,26.59,5.11c7.39-5.1,14.7-10.33,21.94-15.65
	c-10.53-8.05-20.97-16.4-31.15-24.99C96.72,251.99,85.74,259.3,74.56,266.3z M232.4,364.26c-4.65,1.86-9.64,3.04-14.75,3.58
	c2.08,1.16,4.15,2.32,6.23,3.45C226.74,368.98,229.57,366.63,232.4,364.26z M75.85,474.1l-0.7,0.55
	c15.11,9.44,34.29,14.66,57.34,15.6c1.74-1.04,3.48-2.04,5.22-3.08c-13.22-8.1-26.24-16.5-39.11-25.19
	C91.06,466.1,83.46,470.18,75.85,474.1z M247.33,358.18c-6.16,5.32-12.32,10.53-18.58,15.75c6.26,3.33,12.57,6.61,18.93,9.74
	c0-1.19,0.05-2.39,0.05-3.58C247.68,372.84,247.53,365.48,247.33,358.18z M146.36,308.85c-1.02,0-2.13-0.11-3.29-0.19
	c-1.13,0.11-2.27,0.19-3.29,0.19c-2.39-0.02-4.57,2.37-6.2,5.24c3.06,2.24,6.14,4.47,9.25,6.67c3.21-2.29,6.41-4.61,9.59-6.94
	C150.81,311.08,148.69,308.84,146.36,308.85z M142.83,266.35c10.53-8,20.97-16.25,31.16-24.79c-9.54-6.86-19.03-13.96-28.32-21.27
	c-1.64-0.05-3.28-0.05-4.97-0.05c-0.2,0-0.35,0-0.6,0c-9.29,7.35-18.78,14.41-28.42,21.37C121.87,250.1,132.25,258.35,142.83,266.35
	z M113.15,354.3c9.79,7.19,19.7,14.21,29.69,20.97c10.16-6.82,20.14-13.9,29.97-21.16c-3.92-3.89-7.14-8.48-9.79-13.45
	c-6.78-4.48-13.51-9.04-20.18-13.73c-6.43,4.52-12.92,8.93-19.46,13.26C120.64,345.42,117.28,350.25,113.15,354.3z M103.78,241.16
	c-3.93-3.33-7.75-6.76-11.58-10.24c-11.83,6.16-21.37,14.71-28.97,24.99c2.48,2.34,5.02,4.67,7.5,6.96
	C81.92,255.92,92.95,248.66,103.78,241.16z M131.95,220.44c-13.37,0.84-24.99,3.73-35.03,8.2c3.68,3.23,7.3,6.41,10.98,9.64
	C115.95,232.51,124,226.55,131.95,220.44z M231.03,272.51c-1.94-4.17-4.12-8.15-6.51-11.93c-1.79,1.64-3.53,3.28-5.27,4.92
	C223.18,267.89,227.11,270.23,231.03,272.51z M188.25,229.13c-9.74-4.32-21.07-7.2-34.24-8.4c7.8,6.01,15.65,11.83,23.7,17.49
	C181.29,235.3,184.82,232.22,188.25,229.13z M214.88,262.82c2.29-2.09,4.62-4.22,6.86-6.31c-7.35-10.29-16.75-18.93-28.82-25.14
	c-3.68,3.28-7.35,6.56-11.13,9.79C192.72,248.66,203.7,255.92,214.88,262.82z M207.71,368.09c-9.35-0.5-18.56-3.02-26.23-7.35
	c-1.7-0.96-3.3-2.05-4.81-3.22c-9.59,7.11-19.31,14.04-29.22,20.73c12.22,8,24.6,15.75,37.12,23.16
	c11.83-8.6,23.55-17.44,35.03-26.63C215.62,372.57,211.66,370.34,207.71,368.09z M53.64,278.71c4.37-0.61,8.75-1.08,13.23-1.05
	c4.84,0.03,9.63,0.41,14.4,0.99c-3.72-3.21-7.42-6.44-11.09-9.72C64.72,272.27,59.18,275.52,53.64,278.71z M96.28,404.24
	c-11.88-8.65-23.55-17.64-35.03-26.88c-9.04,4.82-18.09,9.49-27.28,14.01c0.3,5.91,0.89,11.58,1.74,16.94
	c7.11,5.81,14.26,11.58,21.52,17.19C70.44,418.75,83.41,411.64,96.28,404.24z M179.95,404.69c-12.52-7.45-24.89-15.25-37.12-23.35
	c-12.22,8.1-24.6,15.9-37.12,23.35c12.17,8.65,24.55,16.99,37.12,24.99C155.36,421.68,167.73,413.33,179.95,404.69z M123.73,286.26
	c1.94,0.31,3.89,0.6,5.84,0.85c4.45,0.58,8.98,0.94,13.51,0.99c4.53-0.08,9.06-0.41,13.51-0.99c1.81-0.23,3.62-0.5,5.43-0.78
	c-6.45-4.53-12.84-9.15-19.18-13.86C136.53,277.16,130.15,281.75,123.73,286.26z M138.26,378.3c-9.84-6.64-19.51-13.53-29.04-20.59
	c-1.44,1.1-2.95,2.13-4.56,3.04c-7.77,4.39-17.14,6.92-26.63,7.36c-3.96,2.27-7.93,4.51-11.93,6.72
	c11.48,9.09,23.11,18.04,35.03,26.63C113.67,394.05,126.04,386.3,138.26,378.3z M34.36,354.75c-0.45,8.5-0.7,16.99-0.7,25.29
	c0,1.94,0.05,3.83,0.1,5.71c7.8-3.83,15.5-7.8,23.16-11.88C49.32,367.67,41.77,361.31,34.36,354.75z M60.35,259.94
	c-2.93,4.37-5.57,9.04-7.95,13.91c4.72-2.68,9.34-5.47,14.01-8.25C64.38,263.67,62.39,261.78,60.35,259.94z"/>
<path d="M271.11,302.94c-6.05,3.32-7.57,10.47-9.26,16.47c-2.76,9.84-4.31,20.42-9.86,29.12c-4.7,7.37-11.63,12.55-19.59,15.73
	c-4.65,1.86-9.64,3.04-14.75,3.58c-3.29,0.34-6.62,0.42-9.93,0.25c-9.35-0.5-18.56-3.02-26.23-7.35c-1.7-0.96-3.3-2.05-4.81-3.22
	c-1.36-1.06-2.65-2.21-3.87-3.42c-3.92-3.89-7.14-8.48-9.79-13.45c-1.5-2.81-2.82-5.72-3.99-8.7c-1.56-3.95-2.87-7.99-3.98-11.97
	c-0.13-0.48-0.3-0.99-0.48-1.51c-0.53-1.52-1.26-3.16-2.14-4.65c-1.61-2.75-3.73-4.99-6.06-4.97c-1.02,0-2.13-0.11-3.29-0.19
	c-1.13,0.11-2.27,0.19-3.29,0.19c-2.39-0.02-4.57,2.37-6.2,5.24c-0.87,1.52-1.58,3.17-2.09,4.68c-0.14,0.42-0.27,0.83-0.38,1.22
	c-1.07,3.81-2.31,7.67-3.79,11.46c-1.16,2.98-2.46,5.91-3.94,8.74c-2.74,5.24-6.1,10.07-10.23,14.12c-1.24,1.21-2.54,2.35-3.92,3.41
	c-1.44,1.1-2.95,2.13-4.56,3.04c-7.77,4.39-17.14,6.92-26.63,7.36c-3.34,0.16-6.69,0.05-10-0.32c-5.36-0.61-10.59-1.91-15.41-3.98
	c-7.49-3.22-14-8.25-18.48-15.27c-5.55-8.7-7.07-19.26-9.86-29.12c-1.71-6.02-3.23-13.15-9.31-16.47c-2.43-1.33-0.72-6.63-1.08-9.73
	c-0.39-3.34-1.13-6.33,3.65-6.99c8.34-1.16,16.47-4.67,25-5.86c3.72-0.52,7.39-1.14,11.08-1.65c4.37-0.61,8.75-1.08,13.23-1.05
	c4.84,0.03,9.63,0.41,14.4,0.99c3.01,0.37,6.01,0.81,9.01,1.31c8.9,1.5,17.73,3.47,26.59,5.11c2.28,0.42,4.57,0.82,6.86,1.18
	c1.94,0.31,3.89,0.6,5.84,0.85c4.45,0.58,8.98,0.94,13.51,0.99c4.53-0.08,9.06-0.41,13.51-0.99c1.81-0.23,3.62-0.5,5.43-0.78
	c2.31-0.36,4.61-0.76,6.92-1.18c8.74-1.61,17.46-3.55,26.23-5.06c3.03-0.52,6.07-0.98,9.12-1.37c4.97-0.62,9.96-1.03,15-1.06
	c4.23-0.03,8.36,0.38,12.47,0.94c3.95,0.54,7.88,1.21,11.84,1.76c8.54,1.19,16.66,4.7,25,5.86c4.81,0.64,4.03,3.62,3.65,6.99
	C271.89,296.31,273.6,301.61,271.11,302.94z"/>
<path class="st1" d="M189.16,216.54c-0.57,0.81-1.47,1.27-2.48,1.01c-27.98-7.23-57.7-6.5-85.31,2.02
	c-0.45,0.14-0.85,0.13-1.21,0.03c-0.92,0.83-2.59,1.01-3.53-0.31c-5.19-7.32-10.38-14.64-15.69-21.87
	c-18.66-25.4-66.39-72.76-64.01-72.45c8.08,1.04,16.1,2.59,23.75,5.47c13.48,5.07,25.64,13.36,37.92,20.76
	c10.39,6.26,20.77,12.52,31.16,18.77c-3.3-5.2-6.6-10.4-9.91-15.6c-17.45-27.48-51.15-86.71-49.33-85.99
	c19.01,7.42,36.07,19.38,49.41,34.81c1.07-5.5,1.78-11.06,2.22-16.65c0.98-12.54,0.98-25.16,1.25-37.74
	c0.28-12.83,0.55-25.65,0.83-38.48c0.05-2.13,34.3,67.62,39.77,92.95c4.36-5.82,8.43-11.85,12.52-17.86
	c15.21-22.37,33.54-47.23,62.05-52.25c2.18-0.38-42.02,60.72-48.18,84.77c5.42-1.74,10.86-3.41,16.35-4.92
	c23.45-6.49,47.47-10.84,71.69-13.11c2.22-0.21-83.47,52.17-90.02,63.03c5.06-2.48,10.25-4.72,15.54-6.66
	c27.15-9.95,56.89-12.36,85.29-6.99C271.6,149.71,204.58,194.57,189.16,216.54z"/>
</svg>
